<svg width="50" height="30" xmlns="http://www.w3.org/2000/svg">
  <g fill="none" fill-rule="evenodd">
    <path d="M48 0a2 2 0 0 1 2 2v26a2 2 0 0 1-2 2H2a2 2 0 0 1-2-2V2a2 2 0 0 1 2-2h46Z" fill="#FFF"/>
    <path d="M9.682 24.091v-7.83h8.291l.89 1.16.919-1.16h30.094v7.29s-.787.532-1.697.54H31.515l-1.003-1.234v1.234h-3.287v-2.107s-.449.294-1.42.294h-1.118v1.813h-4.976l-.888-1.184-.902 1.184H9.682ZM0 10.359 1.87 6h3.233l1.061 2.442V6h4.02l.631 1.765L11.427 6H29.47v.887S30.42 6 31.978 6l5.854.02 1.043 2.41V6h3.363l.926 1.384V6h3.394v7.83h-3.394l-.887-1.388v1.388h-4.942l-.497-1.234h-1.329l-.489 1.234h-3.35c-1.341 0-2.199-.869-2.199-.869v.87h-5.053l-1.003-1.235v1.234H4.624l-.497-1.234H2.803L2.31 13.83H0v-3.47Z" fill="#016FD0" fill-rule="nonzero"/>
    <path d="M2.531 6.965.01 12.83h1.64l.466-1.175h2.705l.463 1.175h1.678l-2.52-5.864H2.531Zm.933 1.365.825 2.052H2.637l.827-2.052Zm3.672 4.498V6.964l2.333.009 1.357 3.78 1.325-3.789h2.314v5.864h-1.466V8.507l-1.553 4.321H10.16L8.602 8.507v4.321zm8.332 0V6.964h4.783v1.312h-3.302v1.003h3.225v1.234h-3.225v1.042h3.302v1.273zM21.1 6.965v5.864h1.466v-2.083h.617l1.757 2.083h1.792l-1.93-2.16a1.786 1.786 0 0 0 1.609-1.802c0-1.233-.968-1.902-2.05-1.902H21.1Zm1.466 1.312h1.675c.402 0 .695.314.695.617 0 .39-.38.617-.673.617h-1.697V8.277Zm5.94 4.551h-1.497V6.964h1.497zm3.549 0h-.323c-1.563 0-2.512-1.232-2.512-2.908 0-1.717.938-2.956 2.912-2.956h1.62v1.389h-1.68c-.8 0-1.367.625-1.367 1.582 0 1.135.648 1.612 1.581 1.612h.386l-.617 1.28Zm3.189-5.863-2.521 5.864h1.641l.466-1.175h2.705l.463 1.175h1.677l-2.519-5.864h-1.912Zm.933 1.365.825 2.052H35.35l.827-2.052Zm3.67 4.498V6.964h1.863l2.38 3.684V6.964h1.466v5.864h-1.804l-2.44-3.781v3.781zm-29.162 10.26v-5.863h4.783v1.311h-3.302v1.003h3.225v1.235h-3.225v1.041h3.302v1.273zm23.437 0v-5.863h4.783v1.311h-3.301v1.003h3.209v1.235h-3.209v1.041h3.301v1.273zm-18.468 0 2.329-2.895-2.385-2.968h1.847l1.42 1.835 1.425-1.835h1.774l-2.353 2.932 2.333 2.931h-1.846l-1.379-1.806-1.345 1.806zm6.564-5.862v5.863h1.505v-1.851h1.543c1.305 0 2.295-.693 2.295-2.04 0-1.116-.776-1.972-2.105-1.972h-3.238Zm1.505 1.326h1.625c.422 0 .723.258.723.675 0 .391-.3.675-.728.675h-1.62v-1.35Zm4.474-1.327v5.863h1.466v-2.083h.617l1.758 2.083h1.791l-1.929-2.16a1.786 1.786 0 0 0 1.609-1.8c0-1.235-.969-1.903-2.05-1.903h-3.262Zm1.466 1.311h1.676c.402 0 .694.315.694.618 0 .39-.379.617-.673.617h-1.697v-1.235Zm9.921 4.552v-1.273h2.934c.434 0 .622-.234.622-.492 0-.246-.187-.495-.622-.495h-1.326c-1.152 0-1.794-.702-1.794-1.756 0-.94.588-1.847 2.3-1.847h2.855l-.618 1.32h-2.468c-.472 0-.617.247-.617.483 0 .243.18.511.54.511h1.388c1.285 0 1.842.729 1.842 1.683 0 1.026-.62 1.866-1.912 1.866h-3.124Zm5.38 0v-1.273h2.934c.434 0 .622-.234.622-.492 0-.246-.188-.495-.622-.495h-1.326c-1.152 0-1.794-.702-1.794-1.756 0-.94.588-1.847 2.3-1.847h2.854l-.617 1.32h-2.468c-.472 0-.618.247-.618.483 0 .243.18.511.54.511h1.39c1.284 0 1.841.729 1.841 1.683 0 1.026-.621 1.866-1.912 1.866h-3.124Z" fill="#FFF" fill-rule="nonzero"/>
  </g>
</svg>
