<svg width="50" height="30" xmlns="http://www.w3.org/2000/svg">
  <g fill="none" fill-rule="evenodd">
    <path d="M48 0a2 2 0 0 1 2 2v26a2 2 0 0 1-2 2H2a2 2 0 0 1-2-2V2a2 2 0 0 1 2-2h46Z" fill="#FFF"/>
    <path d="M38.718 25.7v.109h.063a.049.049 0 0 0 .034-.014.062.062 0 0 0 .013-.042.059.059 0 0 0-.013-.04.045.045 0 0 0-.034-.014h-.063v.001Zm.053-.04a.098.098 0 0 1 .063.018.06.06 0 0 1 .022.05.057.057 0 0 1-.017.044.087.087 0 0 1-.051.02l.07.081h-.054l-.065-.08h-.02v.08h-.046v-.213h.099-.001Zm-.014.287a.182.182 0 0 0 .164-.109.183.183 0 0 0 0-.14.185.185 0 0 0-.095-.095.185.185 0 0 0-.14 0 .18.18 0 0 0-.058.039.183.183 0 0 0 0 .254.181.181 0 0 0 .129.053m0-.41a.237.237 0 0 1 .216.14.227.227 0 0 1-.125.303.235.235 0 0 1-.309-.125.227.227 0 0 1 .126-.302.235.235 0 0 1 .092-.019m-21.647-.823c0-.408.267-.743.703-.743.418 0 .7.32.7.743 0 .422-.282.743-.7.743-.436 0-.703-.335-.703-.743m1.878 0v-1.161h-.504v.283c-.16-.21-.403-.34-.733-.34-.65 0-1.16.51-1.16 1.218 0 .709.51 1.219 1.16 1.219.33 0 .573-.131.733-.34v.281h.504v-1.16Zm17.049 0c0-.408.267-.743.704-.743.417 0 .699.32.699.743 0 .422-.282.743-.7.743-.436 0-.703-.335-.703-.743m1.879 0V22.62h-.505v1.215c-.16-.21-.403-.34-.733-.34-.65 0-1.16.51-1.16 1.218 0 .709.51 1.219 1.16 1.219.33 0 .573-.131.733-.34v.281h.505v-1.16Zm-12.666-.767c.326 0 .534.204.588.563h-1.204c.054-.335.257-.563.617-.563m.01-.453c-.68 0-1.156.495-1.156 1.219 0 .738.495 1.218 1.19 1.218.349 0 .669-.087.95-.325l-.247-.374a1.106 1.106 0 0 1-.675.243c-.325 0-.62-.15-.694-.568h1.723c.005-.063.01-.126.01-.194-.005-.724-.452-1.219-1.102-1.219m6.092 1.219c0-.408.267-.743.704-.743.417 0 .699.32.699.743 0 .422-.282.743-.699.743-.437 0-.704-.335-.704-.743m1.879 0v-1.16h-.505v.283c-.16-.21-.402-.34-.733-.34-.65 0-1.16.51-1.16 1.218 0 .709.51 1.219 1.16 1.219.33 0 .573-.131.733-.34v.281h.505v-1.161Zm-4.728 0c0 .704.49 1.218 1.238 1.218.35 0 .582-.077.834-.276l-.243-.408a1.02 1.02 0 0 1-.607.209c-.403-.005-.7-.296-.7-.743s.297-.738.7-.743c.218 0 .417.073.607.209l.243-.408c-.252-.199-.485-.277-.834-.277-.748 0-1.238.515-1.238 1.219m6.504-1.219a.685.685 0 0 0-.611.34v-.281h-.5v2.32h.505v-1.3c0-.384.165-.598.495-.598a.818.818 0 0 1 .315.059l.156-.476a1.073 1.073 0 0 0-.36-.063m-13.524.242c-.243-.16-.578-.242-.947-.242-.587 0-.966.281-.966.743 0 .378.282.611.8.684l.24.034c.276.039.406.112.406.243 0 .18-.183.281-.528.281-.35 0-.602-.111-.772-.242l-.237.393c.276.204.626.301 1.004.301.67 0 1.059-.315 1.059-.757 0-.408-.306-.621-.81-.694l-.239-.035c-.218-.028-.393-.072-.393-.227 0-.17.165-.272.442-.272.296 0 .583.112.723.199l.219-.408h-.001Zm6.51-.242a.683.683 0 0 0-.611.34v-.282h-.5v2.32h.504v-1.3c0-.384.165-.598.495-.598a.818.818 0 0 1 .316.059l.155-.476a1.073 1.073 0 0 0-.36-.063m-4.305.058h-.825v-.704h-.51v.704h-.47v.461h.47v1.059c0 .538.21.859.806.859.22 0 .471-.068.631-.18l-.145-.432a.934.934 0 0 1-.447.131c-.252 0-.335-.155-.335-.388v-1.048h.825v-.462Zm-7.543 2.32v-1.455c0-.549-.35-.918-.913-.923-.296-.005-.602.088-.816.413-.16-.257-.412-.413-.766-.413-.248 0-.49.073-.68.345v-.287h-.505v2.32h.509v-1.286c0-.403.223-.617.568-.617.335 0 .505.218.505.612v1.29h.51v-1.286c0-.402.233-.616.568-.616.344 0 .509.218.509.611v1.292h.51Z" fill="#231F20" fill-rule="nonzero"/>
    <path d="M39.368 18.915v-1.1h-.132l-.152.755-.152-.755H38.8v1.1h.093v-.828l.143.715h.097l.143-.717v.83h.093Zm-.837 0v-.911h.17v-.186h-.432v.186h.169v.911h.093Z" fill="#F79410" fill-rule="nonzero"/>
    <path fill="#FF5F00" fill-rule="nonzero" d="M28.962 19.61h-7.646V5.868h7.647z"/>
    <path d="M21.8 12.74a8.725 8.725 0 0 1 3.339-6.871A8.739 8.739 0 0 0 11 12.739a8.739 8.739 0 0 0 14.139 6.871 8.725 8.725 0 0 1-3.338-6.87" fill="#EB001B" fill-rule="nonzero"/>
    <path d="M39.278 12.74a8.739 8.739 0 0 1-14.14 6.87 8.723 8.723 0 0 0 3.339-6.87 8.723 8.723 0 0 0-3.338-6.871 8.739 8.739 0 0 1 14.14 6.87" fill="#F79E1B" fill-rule="nonzero"/>
  </g>
</svg>
