<svg width="100" height="100" fill="none" xmlns="http://www.w3.org/2000/svg">
  <circle cx="50" cy="50" r="50" fill="#EF0000"/>
  <g clip-path="url(#a)">
    <path d="M76.14 64.25 62.68 50.79a2.7 2.7 0 0 0-3.81 0l-4.84 4.83a50.46 50.46 0 0 1-9.65-9.65l4.83-4.84a2.7 2.7 0 0 0 0-3.8L35.75 23.85A2.7 2.7 0 0 0 33 23.2c-.1.03-2.39.8-4.68 2.33-4.33 2.9-5.24 6.11-5.24 8.3 0 9.55 5.2 20.46 13.91 29.17s19.62 13.91 29.16 13.91c2.2 0 5.42-.9 8.3-5.24a21.4 21.4 0 0 0 2.33-4.68 2.7 2.7 0 0 0-.65-2.75Zm-9.99 7.29c-17.26 0-37.69-20.43-37.69-37.7 0-2.14 2.75-3.94 4.75-4.9l10.3 10.3-4.56 4.55a2.69 2.69 0 0 0-.32 3.43 55.67 55.67 0 0 0 14.15 14.15 2.7 2.7 0 0 0 3.43-.32l4.56-4.55 10.28 10.28c-.93 1.95-2.73 4.76-4.9 4.76Z" fill="#fff"/>
  </g>
  <defs>
    <clipPath id="a">
      <path fill="#fff" transform="translate(23.08 23.08)" d="M0 0h53.85v53.85H0z"/>
    </clipPath>
  </defs>
</svg>