<svg width="50" height="30" xmlns="http://www.w3.org/2000/svg" xmlns:xlink="http://www.w3.org/1999/xlink">
  <defs>
    <path d="M48 0a2 2 0 0 1 2 2v26a2 2 0 0 1-2 2H2a2 2 0 0 1-2-2V2a2 2 0 0 1 2-2h46Z" id="a"/>
    <path d="M29.914 10.07c.752-.004 1.5.131 2.202.4l-.333 2.068-.22-.109a4.31 4.31 0 0 0-1.839-.366c-.963 0-1.408.424-1.408.82-.006.448.521.741 1.38 1.183 1.418.681 2.073 1.504 2.064 2.591-.02 1.979-1.697 3.258-4.28 3.258-1.102-.012-2.164-.243-2.737-.509l.343-2.134.316.152c.809.356 1.331.5 2.316.5.706 0 1.463-.293 1.47-.932.004-.417-.318-.716-1.276-1.184-.932-.455-2.167-1.22-2.152-2.59.014-1.853 1.724-3.148 4.154-3.148Zm8.506.176 1.989 9.531h-2.28l-.136-.653-.053-.258a54.627 54.627 0 0 0-.111-.518l-3.147-.005c-.038.103-.129.353-.223.616l-.095.262-.186.52-.013.035h-2.582l3.65-8.74c.258-.621.699-.79 1.288-.79h1.899Zm-13.68-.01-1.537 9.537h-2.458l1.537-9.537h2.458Zm-3.452.008-3.87 9.52-2.602.001-2.2-8.34c1.561.826 2.956 2.477 3.404 4l.258 1.321 2.405-6.502h2.605Zm15.406 2.572.166.823s.472 2.276.569 2.753h-2.04l.384-1.043.121-.331.474-1.292c-.01.017.083-.234.183-.51l.075-.206.068-.194Z" id="b"/>
    <path d="M14.045 10.238c.534.021.965.2 1.115.805l.86 4.382c-.846-2.293-2.887-4.2-5.97-4.99l.032-.197h3.963Z" id="c"/>
  </defs>
  <g fill="none" fill-rule="evenodd">
    <use fill="#FFF" xlink:href="#a"/>
    <use fill="#263379" xlink:href="#b"/>
    <use fill="#EC982C" xlink:href="#c"/>
  </g>
</svg>
